<svg xmlns="http://www.w3.org/2000/svg" xmlns:xlink="http://www.w3.org/1999/xlink" width="200" zoomAndPan="magnify" viewBox="0 0 150 149.999998" height="200" preserveAspectRatio="xMidYMid meet" version="1.0"><defs><clipPath id="2e4e573d80"><path d="M 4 30.058594 L 129 30.058594 L 129 120 L 4 120 Z M 4 30.058594 " clip-rule="nonzero"/></clipPath><clipPath id="2d28a72ad9"><path d="M 3.804688 30.199219 L 129 30.199219 L 129 119.941406 L 3.804688 119.941406 Z M 3.804688 30.199219 " clip-rule="nonzero"/></clipPath><clipPath id="a83c25a02e"><path d="M 5.054688 49.566406 L 145.9375 49.566406 L 145.9375 119.941406 L 5.054688 119.941406 Z M 5.054688 49.566406 " clip-rule="nonzero"/></clipPath></defs><g clip-path="url(#2e4e573d80)"><path fill="#f14a38" d="M 72.457031 30.925781 L 121.351562 30.925781 C 125.109375 30.925781 128.15625 33.972656 128.15625 37.734375 L 128.15625 112.40625 C 128.15625 116.167969 125.109375 119.214844 121.351562 119.214844 L 11.332031 119.214844 C 7.574219 119.214844 4.527344 116.167969 4.527344 112.40625 L 4.527344 37.734375 C 4.527344 33.972656 7.574219 30.925781 11.332031 30.925781 L 67.25 30.925781 " fill-opacity="1" fill-rule="nonzero"/></g><g clip-path="url(#2d28a72ad9)"><path fill="#100f0d" d="M 121.351562 119.941406 L 11.332031 119.941406 C 7.183594 119.941406 3.804688 116.5625 3.804688 112.410156 L 3.804688 37.734375 C 3.804688 33.582031 7.183594 30.203125 11.332031 30.203125 L 67.25 30.203125 C 67.648438 30.203125 67.972656 30.527344 67.972656 30.925781 C 67.972656 31.324219 67.648438 31.652344 67.25 31.652344 L 11.332031 31.652344 C 7.980469 31.652344 5.25 34.378906 5.25 37.734375 L 5.25 112.410156 C 5.25 115.761719 7.980469 118.492188 11.332031 118.492188 L 121.351562 118.492188 C 124.703125 118.492188 127.433594 115.761719 127.433594 112.410156 L 127.433594 37.734375 C 127.433594 34.378906 124.703125 31.652344 121.351562 31.652344 L 72.457031 31.652344 C 72.058594 31.652344 71.734375 31.324219 71.734375 30.925781 C 71.734375 30.527344 72.058594 30.203125 72.457031 30.203125 L 121.351562 30.203125 C 125.503906 30.203125 128.878906 33.582031 128.878906 37.734375 L 128.878906 112.410156 C 128.878906 116.5625 125.503906 119.941406 121.351562 119.941406 " fill-opacity="1" fill-rule="nonzero"/></g><path fill="#f14c30" d="M 14.710938 70.601562 L 17.507812 57.261719 C 18.238281 53.765625 21.3125 51.253906 24.882812 51.230469 L 137.570312 50.519531 C 142.625 50.488281 146.296875 55.316406 144.917969 60.183594 L 129.722656 113.699219 C 128.796875 116.964844 125.816406 119.214844 122.425781 119.214844 L 13.867188 119.214844 C 9.050781 119.214844 5.457031 114.785156 6.445312 110.070312 L 13.167969 77.972656 " fill-opacity="1" fill-rule="nonzero"/><g clip-path="url(#a83c25a02e)"><path fill="#100f0d" d="M 122.425781 119.941406 L 13.867188 119.941406 C 11.355469 119.941406 9.003906 118.820312 7.417969 116.867188 C 5.835938 114.914062 5.21875 112.386719 5.738281 109.921875 L 12.460938 77.824219 C 12.542969 77.433594 12.921875 77.183594 13.316406 77.265625 C 13.707031 77.347656 13.957031 77.730469 13.875 78.121094 L 7.152344 110.21875 C 6.726562 112.253906 7.230469 114.34375 8.542969 115.957031 C 9.847656 117.570312 11.792969 118.492188 13.867188 118.492188 L 122.425781 118.492188 C 125.476562 118.492188 128.191406 116.441406 129.027344 113.503906 L 144.222656 59.984375 C 144.816406 57.886719 144.398438 55.6875 143.078125 53.953125 C 141.769531 52.230469 139.78125 51.242188 137.621094 51.242188 C 137.605469 51.242188 137.589844 51.242188 137.578125 51.242188 L 24.886719 51.953125 C 21.675781 51.972656 18.871094 54.269531 18.214844 57.410156 L 15.417969 70.75 C 15.335938 71.140625 14.957031 71.394531 14.566406 71.308594 C 14.171875 71.230469 13.921875 70.847656 14.003906 70.453125 L 16.800781 57.113281 C 17.597656 53.308594 20.996094 50.53125 24.878906 50.507812 L 137.566406 49.796875 C 137.585938 49.796875 137.605469 49.796875 137.621094 49.796875 C 140.238281 49.796875 142.644531 50.992188 144.234375 53.078125 C 145.828125 55.179688 146.332031 57.839844 145.613281 60.378906 L 130.417969 113.902344 C 129.40625 117.457031 126.121094 119.941406 122.425781 119.941406 " fill-opacity="1" fill-rule="nonzero"/></g><path fill="#171619" d="M 64.859375 90.847656 L 64.859375 94.722656 L 40.214844 84.332031 L 40.214844 81.152344 L 64.859375 70.808594 L 64.859375 74.640625 L 45.015625 82.710938 L 64.859375 90.847656 " fill-opacity="1" fill-rule="nonzero"/><path fill="#171619" d="M 70.492188 99.925781 L 67.203125 99.925781 L 76.753906 65.78125 L 80.023438 65.78125 L 70.492188 99.925781 " fill-opacity="1" fill-rule="nonzero"/><path fill="#171619" d="M 83.941406 74.640625 L 83.941406 70.808594 L 108.585938 81.152344 L 108.585938 84.332031 L 83.941406 94.722656 L 83.941406 90.847656 L 103.785156 82.753906 L 83.941406 74.640625 " fill-opacity="1" fill-rule="nonzero"/></svg>